PathFileType	4	(X/Y/Z)	C:\Users\WrightLab\Desktop\Jo\P1.2Trial21.trc
DataRate	CameraRate	NumFrames	NumMarkers	Units	OrigDataRate	OrigDataStartFrame	OrigNumFrames
100.00	100.00	       44	19	mm	100.00	1	       660
Frame#	Time	Headset_Front			Headset_Back			Headset_Left			Headset_Right			Left_Shoulder			Right_Shoulder			Sternum			C7			Left Elbow			Right Elbow			Left Wrist			Right Wrist			Left ASIS			Right ASIS			S2			Left Knee			Right Knee			Left Ankle			Right Ankle			
		X1	Y1	Z1	X2	Y2	Z2	X3	Y3	Z3	X4	Y4	Z4	X5	Y5	Z5	X6	Y6	Z6	X7	Y7	Z7	X8	Y8	Z8	X9	Y9	Z9	X10	Y10	Z10	X11	Y11	Z11	X12	Y12	Z12	X13	Y13	Z13	X14	Y14	Z14	X15	Y15	Z15	X16	Y16	Z16	X17	Y17	Z17	X18	Y18	Z18	X19	Y19	Z19	

1	0.000																															37.53498	725.49054	-1634.04431				-120.36820	839.46863	-1645.83203																			
2	0.010																															37.42134	725.41785	-1634.76184				-121.27505	839.92896	-1643.84705																			
3	0.020																															36.31516	725.42548	-1634.30859				-121.40032	839.56781	-1644.67114																			
4	0.030																															36.00189	725.31708	-1634.74426				-121.48822	839.29742	-1645.24744																			
5	0.040																															35.51973	725.48315	-1635.62708				-122.75996	840.22815	-1641.37427																			
6	0.050																															35.23271	725.50354	-1635.98962				-123.12363	839.50836	-1641.13818																			
7	0.060																															35.03905	725.29834	-1636.80530				-123.80915	840.00543	-1640.34241																			
8	0.070																															34.74788	725.13135	-1637.83459				-124.68157	840.10480	-1638.46753																			
9	0.080																															34.60709	724.99054	-1638.47827				-124.90104	839.55670	-1639.91260																			
10	0.090																															34.60133	724.77576	-1639.23804				-126.02070	839.89850	-1638.68457																			
11	0.100																															34.41330	724.60413	-1640.01294				-126.27274	839.31702	-1640.34705																			
12	0.110																															34.30545	724.57208	-1640.36316				-127.41059	838.83911	-1638.87000																			
13	0.120																															34.11827	724.54523	-1640.93701				-128.38190	838.62573	-1638.32129																			
14	0.130																															34.11557	724.37054	-1641.34729				-128.97168	837.66180	-1639.14990																			
15	0.140																															34.15027	724.12244	-1641.97949				-129.96576	836.82050	-1640.01196																			
16	0.150																															34.20654	723.90479	-1642.67419				-130.16214	836.42230	-1641.30920																			
17	0.160																															34.17664	723.75781	-1643.33020				-130.34398	836.08801	-1642.51428																			
18	0.170																															34.10617	723.25238	-1644.90540				-131.59276	836.65747	-1639.46753																			
19	0.180																															34.02380	722.93054	-1646.08057				-132.72484	837.85144	-1636.70251																			
20	0.190																															34.00056	722.66376	-1647.05750				-133.49757	838.24835	-1634.94897																			
21	0.200																															33.85747	722.06067	-1649.27087				-134.98897	839.91602	-1630.16711																			
22	0.210																															33.71826	721.72034	-1650.59265				-135.13538	839.66144	-1631.13293																			
23	0.220																															34.76887	721.36322	-1654.40698				-135.97307	839.23822	-1630.97986																			
24	0.230																															34.67074	720.86877	-1655.99475				-136.94633	838.99933	-1631.29846																			
25	0.240																															36.03482	720.81403	-1660.29346				-139.83647	838.74640	-1630.88220																			
26	0.250																															35.90316	720.30530	-1662.13098				-140.59399	837.44324	-1635.85657																			
27	0.260																															35.70264	719.83307	-1664.08691				-142.59415	838.91064	-1632.25476																			
28	0.270																															35.54136	719.29724	-1666.11450				-143.89737	838.51917	-1629.99170																			
29	0.280																															35.34021	719.02698	-1667.35828				-145.82704	839.74219	-1625.57837																			
30	0.290																															35.21909	718.42261	-1669.37634				-147.46133	837.73584	-1625.97217																			
31	0.300																															34.98537	718.20532	-1670.36780				-150.02946	837.32733	-1627.48083																			
32	0.310																															34.89326	717.80011	-1671.49866				-153.25711	836.89038	-1626.72571													-12.68665	59.96322	-1798.31165				
33	0.320																															34.70947	717.39685	-1672.69873				-154.87660	836.13898	-1626.07251													-13.68247	62.36963	-1793.80200				
34	0.330																															34.39450	717.12903	-1673.64050				-156.68193	835.71014	-1622.37854													-14.26839	64.03954	-1790.16821				
35	0.340																															34.31971	716.58624	-1674.75793				-159.18648	835.26343	-1621.37646													-14.65125	65.69347	-1785.69226				
36	0.350																															33.00077	715.43091	-1673.76843				-162.27953	832.07501	-1625.62805													-14.29523	66.97484	-1783.01147				
37	0.360																															31.60938	715.59259	-1673.77600				-164.92383	833.24268	-1621.69775													-13.51441	68.73485	-1780.74536				
38	0.370																															30.75045	715.27600	-1673.22974				-167.45747	834.19177	-1617.02942													-14.01340	71.28612	-1777.66907				
39	0.380																															30.31367	715.09961	-1674.32458				-168.75420	832.32892	-1619.71667													-14.20274	74.36835	-1775.94458				
40	0.390																															29.84716	715.06213	-1674.77942				-172.73843	830.83459	-1618.45923													-16.35907	78.13567	-1767.73267				
41	0.400																															29.45296	714.97058	-1675.37427				-174.52460	829.06256	-1622.42981													-17.77781	81.76898	-1764.44995				
42	0.410																															28.99580	714.85510	-1676.16821				-176.75029	830.21643	-1617.21863													-18.71183	85.48029	-1760.30188				
43	0.420																															26.05936	714.60840	-1673.74854				-179.86115	830.87054	-1612.35425													-21.24942	90.41467	-1754.12683				
44	0.430																															24.65009	714.87488	-1673.30945				-182.14561	828.01862	-1621.31616													-23.79518	94.88434	-1748.73950				
